# xmcd
#
# Track frame offsets:
#	150
#	18935
#	44347
#	62681
#	87131
#	109302
#	128894
#	147254
#	169216
#	193181
#	216296
#
# Disc length: 3132 seconds
#
# Revision: 0
# Processed by: cddbd v1.5.2PL0 Copyright (c) Steve Scherf et al.
# Submitted via: EZCDAudioConverter 1.3.4.1
#
DISCID=9f0c3a0b
DTITLE=Suzanne Jarvie - Spiral Road
DYEAR=2015
DGENRE=Country
TTITLE0=Before and After
TTITLE1=2458
TTITLE2=Spiral Road
TTITLE3=Never Gonna Stop
TTITLE4=Tears of Love
TTITLE5=Enola Gay
TTITLE6=Angel of Light
TTITLE7=Love is Now
TTITLE8=Shreiking Shack
TTITLE9=Wait For Me
TTITLE10=Before and After (Redux)
EXTD=
EXTT0=
EXTT1=
EXTT2=
EXTT3=
EXTT4=
EXTT5=
EXTT6=
EXTT7=
EXTT8=
EXTT9=
EXTT10=
PLAYORDER=
